<?xml version="1.0" encoding="UTF-8"?>
<svg xmlns="http://www.w3.org/2000/svg" viewBox="0 0 120 120" width="120" height="120">
  <rect width="100%" height="100%" rx="16" fill="#ffffff"/>
  <g fill="#0f172a">
    <rect x="18" y="58" width="84" height="24" rx="6" fill="#1e293b" opacity="0.08"/>
    <path d="M36 52h48v-8a6 6 0 0 0-6-6H42a6 6 0 0 0-6 6v8z" fill="#2563eb"/>
    <path d="M38 54h44v6H38z" fill="#60a5fa"/>
  </g>
  <g fill="#94a3b8">
    <rect x="30" y="76" width="12" height="6" rx="3"/>
    <rect x="78" y="76" width="12" height="6" rx="3"/>
  </g>
  <g fill="#f97316">
    <path d="M60 36c8 0 8 8 8 8s0 8-8 8-8-8-8-8 0-8 8-8z"/>
  </g>
</svg>
