<?xml version="1.0" encoding="UTF-8"?>
<svg xmlns="http://www.w3.org/2000/svg" viewBox="0 0 120 120" width="120" height="120">
  <rect width="100%" height="100%" rx="16" fill="#ffffff"/>
  <g fill="#2563eb">
    <path d="M20 80c0-22 36-36 40-36s40 14 40 36H20z" opacity="0.12"/>
    <path d="M30 70c0-12 20-20 30-20s30 8 30 20H30z"/>
    <rect x="24" y="40" width="72" height="10" rx="5" fill="#60a5fa"/>
    <circle cx="44" cy="88" r="8" fill="#0f172a"/>
    <circle cx="76" cy="88" r="8" fill="#0f172a"/>
  </g>
  <g fill="#60a5fa">
    <path d="M40 30c-1 0-2-1-2-2 0-3 4-7 4-7s4 4 4 7c0 1-1 2-2 2-1 0-3-1-4-1s-2 1-4 1z"/>
    <path d="M62 26c-0.8 0-1.6-0.7-1.6-1.6 0-2.4 3.2-5.6 3.2-5.6s3.2 3.2 3.2 5.6c0 0.9-0.8 1.6-1.6 1.6-0.8 0-1.6-0.7-3.2-0.7s-1.6 0.7-3.2 0.7z"/>
  </g>
</svg>
